<svg xmlns="http://www.w3.org/2000/svg" viewBox="0 0 32 32" fill="none">
  <rect width="32" height="32" rx="8" fill="url(#grad)"/>
  <path d="M16 8c-2.5 0-4.5 2-4.5 4.5v1.5h-1.5c-1.1 0-2 .9-2 2v8c0 1.1.9 2 2 2h12c1.1 0 2-.9 2-2v-8c0-1.1-.9-2-2-2H20.5v-1.5C20.5 10 18.5 8 16 8zm0 2c1.4 0 2.5 1.1 2.5 2.5V14h-5v-1.5C13.5 11.1 14.6 10 16 10z" fill="white"/>
  <circle cx="13" cy="19" r="1.5" fill="#8B5CF6"/>
  <circle cx="19" cy="19" r="1.5" fill="#06B6D4"/>
  <defs>
    <linearGradient id="grad" x1="0" y1="0" x2="32" y2="32">
      <stop stop-color="#8B5CF6"/>
      <stop offset="1" stop-color="#06B6D4"/>
    </linearGradient>
  </defs>
</svg>
